<svg version="1.1" id="Layer_1" xmlns="http://www.w3.org/2000/svg" xmlns:xlink="http://www.w3.org/1999/xlink" x="0px" y="0px"
	 width="100%" viewBox="0 0 480 89" enable-background="new 0 0 480 89" xml:space="preserve">
<path fill="#000000" opacity="1.000000" stroke="none" 
	d="
M354.000000,90.000000 
	C236.000015,90.000000 118.500031,90.000000 1.000031,90.000000 
	C1.000021,60.333351 1.000021,30.666702 1.000010,1.000040 
	C160.999954,1.000026 320.999908,1.000026 480.999908,1.000013 
	C480.999939,30.666626 480.999939,60.333252 480.999969,89.999939 
	C438.833344,90.000000 396.666656,90.000000 354.000000,90.000000 
M50.914410,23.458818 
	C50.622185,23.281055 50.329956,23.103294 50.020355,23.002161 
	C50.020355,23.002161 50.059254,22.933002 49.826363,22.347214 
	C49.225536,22.291250 48.624714,22.235287 47.141590,22.026506 
	C40.094589,23.742344 33.047588,25.458183 25.127541,27.025234 
	C17.998983,26.981480 17.980701,26.981543 18.005781,34.211155 
	C18.018250,37.805359 18.112011,41.399288 18.298502,45.761238 
	C23.364594,47.782257 28.420683,49.829151 33.508049,51.795120 
	C34.233158,52.075340 35.109867,51.963253 36.101948,52.499352 
	C36.391247,52.590805 36.680546,52.682259 37.600159,52.944263 
	C38.034382,52.974304 38.468609,53.004345 39.068207,53.534492 
	C39.371414,53.631351 39.674625,53.728210 40.689301,53.970665 
	C42.138680,54.013351 43.588055,54.056038 45.626362,53.848785 
	C45.782791,53.239990 45.939220,52.631199 46.027172,52.017567 
	C46.027172,52.017567 46.052078,52.081543 46.765938,52.346382 
	C46.692822,55.139111 47.676178,56.626335 50.736023,57.457027 
	C55.907639,58.861031 60.856495,61.085548 65.434975,63.030537 
	C65.434975,63.030537 64.990402,63.178795 64.371849,63.035179 
	C63.890697,63.339741 63.409546,63.644299 62.990276,63.983727 
	C62.990276,63.983727 62.967476,63.916462 62.451328,64.075661 
	C62.264584,64.372528 62.077839,64.669395 61.442093,65.035721 
	C61.442093,65.035721 61.020283,65.204552 60.328442,65.266823 
	C59.548817,66.573059 58.769192,67.879295 57.555237,69.033806 
	C57.555237,69.033806 57.100025,68.967216 56.921921,68.460617 
	C56.621857,68.287308 56.321796,68.114006 56.001984,67.996674 
	C56.001984,67.996674 56.054070,67.968208 55.792171,67.398300 
	C55.192505,67.280823 54.592842,67.163345 53.986801,66.991135 
	C53.986801,66.991135 53.942978,67.024529 53.623367,66.541473 
	C53.089565,66.330559 52.555759,66.119637 52.005863,65.974678 
	C52.005863,65.974678 52.069206,65.950249 51.832355,65.361946 
	C51.229443,65.301758 50.626530,65.241577 49.573402,65.026184 
	C49.573402,65.026184 49.101028,64.965790 48.912891,64.465797 
	C48.618149,64.281586 48.323406,64.097382 48.006393,63.978195 
	C48.006393,63.978195 48.069984,63.952110 47.832863,63.363499 
	C47.229897,63.304867 46.626930,63.246235 45.539345,63.034908 
	C45.370701,63.019249 45.202061,63.003586 44.671959,62.376106 
	C43.417747,62.573006 42.163532,62.769905 40.447071,63.044163 
	C40.447071,63.044163 40.005234,63.200481 39.284168,63.339138 
	C39.515453,64.910355 39.746742,66.481575 40.099815,68.536690 
	C40.289497,68.847816 40.566372,69.010986 41.089951,69.512993 
	C41.384510,69.608841 41.679066,69.704697 42.555473,70.053818 
	C43.361217,70.706383 44.166962,71.358948 45.246979,72.556480 
	C45.824089,72.729378 46.401203,72.902267 46.992264,73.012268 
	C46.992264,73.012268 46.930397,73.030228 47.095921,73.533058 
	C47.387863,73.714607 47.679806,73.896156 47.996914,74.015762 
	C47.996914,74.015762 47.935627,74.042480 48.169815,74.628563 
	C48.768970,74.788811 49.368122,74.949066 50.273491,75.738670 
	C55.012280,78.185196 59.708179,80.719757 64.501259,83.054840 
	C69.886436,85.678352 75.341614,85.858986 81.002106,83.562401 
	C89.733582,80.019867 98.577461,76.754402 107.641617,73.268356 
	C107.641617,68.903336 107.641617,63.516182 107.641617,58.395538 
	C103.547234,57.884800 99.832115,57.421368 95.937553,56.453915 
	C95.628799,56.361629 95.320053,56.269341 94.545433,56.039288 
	C94.545433,56.039288 94.063393,55.978924 93.648674,55.289059 
	C91.774162,55.249130 89.899651,55.209198 87.225334,55.027534 
	C86.147064,55.079983 85.068794,55.132431 83.387505,55.048347 
	C82.920998,55.348522 82.454491,55.648697 81.970230,55.964382 
	C81.970230,55.964382 81.952774,55.980247 81.476044,56.044239 
	C81.476044,56.044239 81.016762,56.187168 80.420288,56.135956 
	C79.945244,56.486752 79.470200,56.837543 78.473320,57.111771 
	C78.285965,57.395580 78.098610,57.679390 77.439987,58.037239 
	C77.439987,58.037239 76.991280,58.199181 76.477493,58.125435 
	C76.291153,58.404072 76.104813,58.682709 75.445694,59.033882 
	C75.445694,59.033882 74.994080,59.191441 74.333824,58.809322 
	C75.516129,54.672119 76.643967,50.518406 77.891907,46.401100 
	C80.610123,37.432999 83.299782,28.454369 86.187454,19.540413 
	C87.366562,15.900622 87.929588,13.613200 82.729530,12.728392 
	C77.056969,11.763185 71.575981,9.507192 66.111816,7.535785 
	C61.959270,6.037593 60.074760,7.614533 58.966263,11.520757 
	C57.495544,16.703421 55.704811,21.795271 54.004745,26.981798 
	C54.004745,26.981798 54.074711,26.961899 53.916950,26.456017 
	C53.623207,26.278814 53.329468,26.101612 53.011166,25.987658 
	C53.011166,25.987658 53.073990,25.962038 52.915585,25.456972 
	C52.622231,25.279779 52.328873,25.102587 52.010479,24.988289 
	C52.010479,24.988289 52.072964,24.962236 51.914352,24.457819 
	C51.621368,24.280613 51.328384,24.103409 51.009918,23.988775 
	C51.009918,23.988775 51.072128,23.962429 50.914410,23.458818 
M372.011963,58.022205 
	C372.008453,48.859901 372.049164,39.697147 371.956116,30.535755 
	C371.941284,29.075758 371.325958,27.621864 370.081329,26.017466 
	C367.475189,26.017466 364.869049,26.017466 362.005341,26.017466 
	C362.005341,38.624554 362.063812,50.751614 361.967194,62.877434 
	C361.940674,66.207657 363.370667,67.147522 366.523895,67.055527 
	C373.014313,66.866150 379.514984,67.052353 386.009430,66.953575 
	C387.298035,66.933975 388.577759,66.329659 389.986938,65.097481 
	C389.986938,63.168598 389.986938,61.239719 389.986938,58.948666 
	C383.694916,58.948666 377.901611,58.948666 372.011963,58.022205 
M302.033722,33.005142 
	C307.308655,33.005142 312.583588,33.005142 318.597412,33.005142 
	C317.901123,30.207289 317.364807,28.052317 316.488556,25.121681 
	C313.023285,25.080404 309.553772,24.912621 306.093719,25.028015 
	C301.119659,25.193905 296.152435,25.565958 291.020844,26.794077 
	C291.020844,40.057350 291.020844,53.320625 291.020844,66.984856 
	C293.694519,66.984856 296.015472,67.219887 298.247559,66.876709 
	C299.229889,66.725670 300.746307,65.439873 300.795197,64.598167 
	C301.051331,60.186733 300.914917,55.752510 300.914917,50.882912 
	C306.230408,50.882912 310.975616,50.882912 315.832977,50.882912 
	C315.832977,48.279488 315.832977,46.145077 315.576630,43.183079 
	C310.807159,43.183079 306.037689,43.183079 301.112396,43.183079 
	C301.112396,39.316387 301.112396,36.180206 302.033722,33.005142 
M434.166748,26.443213 
	C434.167816,39.624680 434.168915,52.806149 434.412476,66.801521 
	C437.171021,66.801521 439.929596,66.801521 443.160278,66.801521 
	C443.160278,61.155758 443.160278,55.816608 443.160278,49.470551 
	C445.720276,52.934162 447.578369,55.525089 449.516510,58.054695 
	C453.854675,63.716820 457.983124,69.850853 466.961609,66.302467 
	C466.799957,65.668526 466.819122,64.583199 466.303009,63.905731 
	C462.650879,59.112114 459.188568,54.119301 455.067596,49.754742 
	C451.751801,46.242897 451.712158,43.801853 455.033783,40.317154 
	C459.077545,36.074909 462.527069,31.266247 466.803375,26.001085 
	C464.496246,26.001085 463.285980,26.243290 462.214691,25.959997 
	C457.018890,24.586027 454.158081,27.947620 451.360046,31.263548 
	C448.735687,34.373577 446.328949,37.667255 443.343079,41.500763 
	C443.343079,35.632671 443.343079,30.949814 443.343079,26.168238 
	C440.591553,26.168238 437.788452,26.168238 434.166748,26.443213 
M182.890808,66.993576 
	C188.708969,66.993576 194.527130,66.993576 200.469604,66.993576 
	C201.511261,63.932991 202.481537,61.082130 203.530746,57.999363 
	C206.999069,57.999363 210.502731,58.215908 213.965790,57.933815 
	C216.970779,57.689034 218.249359,58.793808 219.094849,61.647209 
	C220.870224,67.638824 223.977097,68.666382 230.598907,65.897682 
	C225.899948,52.637730 221.200302,39.375824 216.413040,25.866703 
	C212.588943,25.866703 208.852951,25.866703 204.878220,25.866703 
	C200.528534,38.422390 196.141876,51.084816 191.245987,65.217201 
	C189.484482,60.205696 188.181488,56.623058 186.964676,53.011387 
	C184.283783,45.054077 181.572632,37.105572 179.027908,29.104469 
	C178.025406,25.952438 176.258606,24.381123 172.902863,25.006952 
	C169.895233,25.567858 165.803741,23.071102 164.610336,28.597996 
	C163.694809,32.837902 161.862152,36.879013 160.447906,41.012138 
	C157.544632,49.496986 154.648361,57.984241 151.632599,66.811867 
	C155.355087,66.811867 158.481430,66.811867 161.579468,66.811867 
	C162.552765,63.863174 163.496857,61.003017 164.442719,58.137466 
	C169.263657,58.137466 173.903152,58.137466 178.416672,58.137466 
	C179.647446,61.190914 180.812820,64.082108 182.890808,66.993576 
M235.000214,55.481274 
	C235.000214,59.241768 235.000214,63.002258 235.000214,66.998466 
	C240.220108,66.998466 244.849426,66.999199 249.478729,66.998322 
	C261.143494,66.996101 268.645172,62.770481 270.641083,50.553288 
	C272.081268,41.737877 270.007385,29.152452 257.561005,26.434420 
	C250.340759,24.857662 242.726822,25.083693 235.000153,24.475649 
	C235.000153,35.250553 235.000153,44.869228 235.000214,55.481274 
M395.513153,50.987957 
	C393.813721,56.143230 392.114258,61.298504 390.400818,66.496307 
	C396.757080,67.700264 401.166077,67.767113 401.785065,60.826668 
	C401.878448,59.779922 404.153778,58.418861 405.607941,58.120590 
	C407.841766,57.662403 410.313110,58.368858 412.550140,57.918266 
	C416.558472,57.110889 418.418427,59.800591 418.608246,62.512264 
	C418.941132,67.267494 421.608490,67.233490 424.963318,67.015404 
	C426.564087,66.911339 428.177216,66.997498 430.103577,66.997498 
	C426.498962,56.372490 423.083832,46.223740 419.611481,36.094601 
	C416.317444,26.485754 416.292694,26.459703 405.854187,25.990788 
	C405.008484,25.952799 403.566193,26.659395 403.337799,27.336143 
	C400.766693,34.954193 398.379120,42.634186 395.513153,50.987957 
M356.944366,62.644188 
	C352.811371,50.493793 348.678345,38.343399 344.526062,26.136288 
	C340.352325,26.136288 336.387634,26.136288 332.316620,26.136288 
	C327.721039,39.615082 323.148651,53.025887 318.385345,66.996635 
	C320.982880,66.996635 322.464386,66.996635 323.945892,66.996635 
	C325.579712,66.996635 327.213501,66.996635 328.791901,66.996635 
	C329.906311,58.288483 330.225189,57.999760 338.327118,57.999592 
	C340.803711,57.999542 343.280273,57.999588 345.638214,57.999588 
	C346.670380,61.242218 347.587982,64.124908 348.446350,66.821571 
	C351.768585,66.821571 354.738892,66.821571 358.223328,66.821571 
	C357.765533,65.495567 357.416626,64.485023 356.944366,62.644188 
M119.957451,57.567974 
	C120.182701,59.091240 119.905243,60.990788 120.716888,62.075130 
	C125.135246,67.977997 131.743469,66.525841 137.904724,67.135201 
	C144.334991,67.771164 149.353073,62.888100 150.938812,55.720730 
	C152.095093,50.494434 147.760803,44.253712 141.812286,42.355560 
	C138.766052,41.383514 135.473587,41.126938 132.505615,39.990303 
	C131.086548,39.446854 130.164017,37.606876 129.016602,36.354130 
	C130.468613,35.243050 132.022141,33.090786 133.353165,33.220570 
	C137.011642,33.577297 140.576767,34.891312 145.450851,36.156776 
	C146.173950,34.784134 149.041107,31.860189 148.558868,29.675621 
	C147.806473,26.267185 143.816299,25.787228 140.308578,25.968880 
	C137.316650,26.123817 134.251465,26.377533 131.322617,25.920935 
	C125.297546,24.981647 121.327461,28.646084 120.300232,33.377949 
	C119.187454,38.503834 120.075394,45.246086 125.650505,47.179466 
	C129.576889,48.541092 133.691086,49.450157 137.452972,51.153996 
	C138.992584,51.851318 139.824646,54.110882 140.978592,55.659756 
	C139.389771,56.772903 137.945023,58.436859 136.185410,58.897118 
	C130.648804,60.345329 127.579079,55.981297 123.776405,52.512028 
	C122.536224,54.198658 121.500214,55.607628 119.957451,57.567974 
z"/>
<path fill="#02E7EF" opacity="1.000000" stroke="none" 
	d="
M182.434509,66.983444 
	C180.812820,64.082108 179.647446,61.190914 178.416672,58.137466 
	C173.903152,58.137466 169.263657,58.137466 164.442719,58.137466 
	C163.496857,61.003017 162.552765,63.863174 161.579468,66.811867 
	C158.481430,66.811867 155.355087,66.811867 151.632599,66.811867 
	C154.648361,57.984241 157.544632,49.496986 160.447906,41.012138 
	C161.862152,36.879013 163.694809,32.837902 164.610336,28.597996 
	C165.803741,23.071102 169.895233,25.567858 172.902863,25.006952 
	C176.258606,24.381123 178.025406,25.952438 179.027908,29.104469 
	C181.572632,37.105572 184.283783,45.054077 186.964676,53.011387 
	C188.181488,56.623058 189.484482,60.205696 191.245987,65.217201 
	C196.141876,51.084816 200.528534,38.422390 204.878220,25.866703 
	C208.852951,25.866703 212.588943,25.866703 216.413040,25.866703 
	C221.200302,39.375824 225.899948,52.637730 230.598907,65.897682 
	C223.977097,68.666382 220.870224,67.638824 219.094849,61.647209 
	C218.249359,58.793808 216.970779,57.689034 213.965790,57.933815 
	C210.502731,58.215908 206.999069,57.999363 203.530746,57.999363 
	C202.481537,61.082130 201.511261,63.932991 200.469604,66.993576 
	C194.527130,66.993576 188.708969,66.993576 182.434509,66.983444 
M212.944916,42.712536 
	C212.188660,40.963131 211.432419,39.213726 210.245087,36.467121 
	C208.844772,41.381824 207.701355,45.394928 206.280350,50.382271 
	C209.923660,49.844669 212.360168,49.485138 214.768356,49.129787 
	C214.055695,46.856842 213.528641,45.175919 212.944916,42.712536 
M173.071503,41.429672 
	C172.603912,39.775814 172.136322,38.121952 171.508011,35.899624 
	C169.991974,40.570965 168.666092,44.656349 167.330109,48.772919 
	C169.891418,48.772919 172.313599,48.772919 175.306503,48.772919 
	C174.667603,46.299480 174.121674,44.185966 173.071503,41.429672 
z"/>
<path fill="#01D4DB" opacity="1.000000" stroke="none" 
	d="
M64.990402,63.178795 
	C64.990402,63.178795 65.434975,63.030537 66.049606,62.989429 
	C69.440849,61.696030 72.217468,60.443733 74.994080,59.191441 
	C74.994080,59.191441 75.445694,59.033882 75.884972,58.907539 
	C76.584206,58.630302 76.806549,58.436298 76.991280,58.199181 
	C76.991280,58.199181 77.439987,58.037239 77.879715,57.906715 
	C78.579781,57.620594 78.805023,57.424644 78.995155,57.188339 
	C79.470200,56.837543 79.945244,56.486752 80.840607,56.246574 
	C81.585709,56.426662 81.816322,56.301014 81.952774,55.980247 
	C81.952774,55.980247 81.970230,55.964382 82.254120,55.939034 
	C83.022179,55.670750 83.506348,55.427814 83.990524,55.184879 
	C85.068794,55.132431 86.147064,55.079983 87.947876,55.297676 
	C90.468071,55.704853 92.265732,55.841888 94.063393,55.978924 
	C94.063393,55.978924 94.545433,56.039288 94.936798,56.272835 
	C95.561211,56.709129 95.824158,56.859650 96.116997,56.957939 
	C99.832115,57.421368 103.547234,57.884800 107.641617,58.395538 
	C107.641617,63.516182 107.641617,68.903336 107.641617,73.268356 
	C98.577461,76.754402 89.733582,80.019867 81.002106,83.562401 
	C75.341614,85.858986 69.886436,85.678352 64.501259,83.054840 
	C59.708179,80.719757 55.012280,78.185196 49.927513,75.197067 
	C49.032902,74.451134 48.484264,74.246803 47.935627,74.042480 
	C47.935627,74.042480 47.996914,74.015762 47.850044,73.835648 
	C47.490639,73.391411 47.233044,73.182983 46.930397,73.030228 
	C46.930397,73.030228 46.992264,73.012268 46.791954,72.821815 
	C46.051998,72.424744 45.512352,72.218132 44.972702,72.011513 
	C44.166962,71.358948 43.361217,70.706383 42.115055,69.767136 
	C41.455383,69.281837 41.207317,69.130417 40.930439,69.026199 
	C40.566372,69.010986 40.289497,68.847816 40.046524,67.888107 
	C39.997231,65.893173 40.001232,64.546829 40.005234,63.200481 
	C40.005234,63.200481 40.447071,63.044163 41.090626,63.013840 
	C42.833927,62.984985 43.933670,62.986454 45.033417,62.987923 
	C45.202061,63.003586 45.370701,63.019249 46.001366,63.284775 
	C46.998917,63.673798 47.534451,63.812954 48.069984,63.952110 
	C48.069984,63.952110 48.006393,63.978195 48.156258,64.159454 
	C48.571095,64.549072 48.836060,64.757431 49.101028,64.965790 
	C49.101028,64.965790 49.573402,65.026184 50.017914,65.278099 
	C50.998016,65.670090 51.533611,65.810173 52.069206,65.950249 
	C52.069206,65.950249 52.005863,65.974678 52.194572,66.166641 
	C52.903179,66.580574 53.423080,66.802551 53.942978,67.024529 
	C53.942978,67.024529 53.986801,66.991135 54.201126,67.217957 
	C54.961662,67.619247 55.507866,67.793724 56.054070,67.968208 
	C56.054070,67.968208 56.001984,67.996674 56.154366,68.176361 
	C56.571171,68.559776 56.835598,68.763496 57.100025,68.967216 
	C57.100025,68.967216 57.555237,69.033806 57.859699,69.450127 
	C60.097256,70.881447 62.182213,72.961441 63.934933,72.711510 
	C69.167305,71.965408 74.298325,70.405029 79.397888,68.918900 
	C80.410393,68.623825 81.107277,67.245697 81.949707,66.367004 
	C76.326889,66.677467 71.429459,67.887627 66.608139,69.348900 
	C62.689816,70.536476 60.803707,69.391380 61.020283,65.204552 
	C61.020283,65.204552 61.442093,65.035721 61.882805,64.866837 
	C62.538166,64.437454 62.752819,64.176956 62.967476,63.916462 
	C62.967476,63.916462 62.990276,63.983727 63.241104,63.944107 
	C63.991421,63.662590 64.490913,63.420692 64.990402,63.178795 
z"/>
<path fill="#02E7EF" opacity="1.000000" stroke="none" 
	d="
M235.000183,54.984589 
	C235.000153,44.869228 235.000153,35.250553 235.000153,24.475649 
	C242.726822,25.083693 250.340759,24.857662 257.561005,26.434420 
	C270.007385,29.152452 272.081268,41.737877 270.641083,50.553288 
	C268.645172,62.770481 261.143494,66.996101 249.478729,66.998322 
	C244.849426,66.999199 240.220108,66.998466 235.000214,66.998466 
	C235.000214,63.002258 235.000214,59.241768 235.000183,54.984589 
M256.921844,56.612846 
	C261.376038,51.833828 261.999634,46.399769 260.110992,40.291317 
	C257.394562,31.505577 249.914810,34.916302 244.223572,33.581276 
	C244.223572,42.067234 244.223572,50.341549 244.223572,59.861702 
	C248.540222,58.814869 252.372528,57.885490 256.921844,56.612846 
z"/>
<path fill="#02E7EF" opacity="1.000000" stroke="none" 
	d="
M395.727722,50.642746 
	C398.379120,42.634186 400.766693,34.954193 403.337799,27.336143 
	C403.566193,26.659395 405.008484,25.952799 405.854187,25.990788 
	C416.292694,26.459703 416.317444,26.485754 419.611481,36.094601 
	C423.083832,46.223740 426.498962,56.372490 430.103577,66.997498 
	C428.177216,66.997498 426.564087,66.911339 424.963318,67.015404 
	C421.608490,67.233490 418.941132,67.267494 418.608246,62.512264 
	C418.418427,59.800591 416.558472,57.110889 412.550140,57.918266 
	C410.313110,58.368858 407.841766,57.662403 405.607941,58.120590 
	C404.153778,58.418861 401.878448,59.779922 401.785065,60.826668 
	C401.166077,67.767113 396.757080,67.700264 390.400818,66.496307 
	C392.114258,61.298504 393.813721,56.143230 395.727722,50.642746 
M409.081268,37.680752 
	C408.056458,41.317696 407.031647,44.954639 405.996918,48.626717 
	C408.883514,48.626717 411.376251,48.626717 414.372314,48.626717 
	C412.663879,44.446835 411.162811,40.774235 409.081268,37.680752 
z"/>
<path fill="#02E7EF" opacity="1.000000" stroke="none" 
	d="
M357.006042,63.059326 
	C357.416626,64.485023 357.765533,65.495567 358.223328,66.821571 
	C354.738892,66.821571 351.768585,66.821571 348.446350,66.821571 
	C347.587982,64.124908 346.670380,61.242218 345.638214,57.999588 
	C343.280273,57.999588 340.803711,57.999542 338.327118,57.999592 
	C330.225189,57.999760 329.906311,58.288483 328.791901,66.996635 
	C327.213501,66.996635 325.579712,66.996635 323.945892,66.996635 
	C322.464386,66.996635 320.982880,66.996635 318.385345,66.996635 
	C323.148651,53.025887 327.721039,39.615082 332.316620,26.136288 
	C336.387634,26.136288 340.352325,26.136288 344.526062,26.136288 
	C348.678345,38.343399 352.811371,50.493793 357.006042,63.059326 
M335.540253,45.016361 
	C335.032745,46.522419 334.525269,48.028481 333.749298,50.331238 
	C337.069580,49.855431 339.854645,49.456329 342.572174,49.066898 
	C341.026245,44.403099 339.738129,40.517044 338.202484,35.884331 
	C337.350067,39.107452 336.661835,41.709801 335.540253,45.016361 
z"/>
<path fill="#02D4DB" opacity="1.000000" stroke="none" 
	d="
M45.037434,54.098724 
	C43.588055,54.056038 42.138680,54.013351 40.179150,53.734314 
	C39.442982,53.294895 39.187595,53.140366 38.902832,53.034386 
	C38.468609,53.004345 38.034382,52.974304 37.133095,52.703789 
	C36.443436,52.272312 36.193562,52.128784 35.916416,52.032730 
	C35.109867,51.963253 34.233158,52.075340 33.508049,51.795120 
	C28.420683,49.829151 23.364594,47.782257 18.581421,45.213898 
	C19.242008,41.688232 20.071268,38.682796 19.894453,35.737759 
	C19.609394,30.989807 20.266012,27.407446 26.000587,27.174023 
	C33.047588,25.458183 40.094589,23.742344 47.800331,22.277473 
	C48.992470,22.663296 49.525860,22.798149 50.059254,22.933002 
	C50.059254,22.933002 50.020355,23.002161 50.163376,23.172432 
	C50.517185,23.604204 50.772430,23.810780 51.072128,23.962429 
	C51.072128,23.962429 51.009918,23.988775 51.157166,24.166149 
	C51.516373,24.604698 51.772556,24.810934 52.072964,24.962236 
	C52.072964,24.962236 52.010479,24.988289 52.157661,25.165615 
	C52.517002,25.604250 52.773384,25.810616 53.073990,25.962038 
	C53.073990,25.962038 53.011166,25.987658 53.158199,26.164951 
	C53.517471,26.603746 53.773964,26.810299 54.074711,26.961899 
	C54.074711,26.961899 54.004745,26.981798 54.075546,27.297661 
	C55.466202,28.708755 56.786060,29.803989 58.096291,30.923222 
	C58.086666,30.947224 58.035824,30.949944 58.166954,31.156279 
	C58.504791,31.621666 58.755077,31.827803 59.020981,31.982628 
	C58.993004,31.984232 59.028069,31.940516 59.157383,32.202366 
	C59.852444,32.980724 60.418190,33.497234 61.050461,34.339046 
	C62.073578,35.439781 63.030174,36.215210 63.992748,36.995647 
	C63.998726,37.000656 64.007843,37.013317 63.989250,37.361008 
	C62.976688,39.142483 61.982727,40.576263 60.658241,41.963982 
	C59.888210,41.848999 59.448700,41.780079 58.894440,41.408585 
	C57.343647,40.041077 55.906528,38.977604 54.471760,37.910973 
	C48.176636,33.231064 46.447945,33.694542 42.674126,41.009979 
	C41.766384,41.441334 41.175442,41.853745 40.584499,42.266155 
	C41.018497,42.637253 41.452496,43.008347 41.886494,43.379440 
	C42.260548,42.589211 42.634605,41.798981 43.405396,41.009010 
	C47.124664,40.755356 48.334805,41.875912 47.128651,45.343075 
	C46.392876,47.458107 46.386219,49.826790 46.052078,52.081543 
	C46.052078,52.081543 46.027172,52.017567 45.835289,52.221188 
	C45.441418,52.982780 45.239426,53.540752 45.037434,54.098724 
z"/>
<path fill="#02E7EF" opacity="1.000000" stroke="none" 
	d="
M120.210823,57.292290 
	C121.500214,55.607628 122.536224,54.198658 123.776405,52.512028 
	C127.579079,55.981297 130.648804,60.345329 136.185410,58.897118 
	C137.945023,58.436859 139.389771,56.772903 140.978592,55.659752 
	C139.824646,54.110882 138.992584,51.851318 137.452972,51.153996 
	C133.691086,49.450157 129.576889,48.541092 125.650505,47.179466 
	C120.075394,45.246086 119.187454,38.503834 120.300232,33.377949 
	C121.327461,28.646084 125.297546,24.981647 131.322617,25.920935 
	C134.251465,26.377533 137.316650,26.123817 140.308578,25.968880 
	C143.816299,25.787228 147.806473,26.267185 148.558868,29.675621 
	C149.041107,31.860189 146.173950,34.784134 145.450851,36.156776 
	C140.576767,34.891312 137.011642,33.577297 133.353165,33.220570 
	C132.022141,33.090786 130.468613,35.243050 129.016602,36.354130 
	C130.164017,37.606876 131.086548,39.446854 132.505615,39.990303 
	C135.473587,41.126938 138.766052,41.383514 141.812286,42.355560 
	C147.760803,44.253712 152.095093,50.494434 150.938812,55.720730 
	C149.353073,62.888100 144.334991,67.771164 137.904724,67.135201 
	C131.743469,66.525841 125.135246,67.977997 120.716888,62.075130 
	C119.905243,60.990788 120.182701,59.091240 120.210823,57.292290 
z"/>
<path fill="#02E7EF" opacity="1.000000" stroke="none" 
	d="
M434.985352,26.168238 
	C437.788452,26.168238 440.591553,26.168238 443.343079,26.168238 
	C443.343079,30.949814 443.343079,35.632671 443.343079,41.500763 
	C446.328949,37.667255 448.735687,34.373577 451.360046,31.263548 
	C454.158081,27.947620 457.018890,24.586027 462.214691,25.959997 
	C463.285980,26.243290 464.496246,26.001085 466.803375,26.001085 
	C462.527069,31.266247 459.077545,36.074909 455.033783,40.317154 
	C451.712158,43.801853 451.751801,46.242897 455.067596,49.754742 
	C459.188568,54.119301 462.650879,59.112114 466.303009,63.905731 
	C466.819122,64.583199 466.799957,65.668526 466.961609,66.302467 
	C457.983124,69.850853 453.854675,63.716820 449.516510,58.054695 
	C447.578369,55.525089 445.720276,52.934162 443.160278,49.470551 
	C443.160278,55.816608 443.160278,61.155758 443.160278,66.801521 
	C439.929596,66.801521 437.171021,66.801521 434.502686,66.041588 
	C434.723694,52.243851 434.854523,39.206043 434.985352,26.168238 
z"/>
<path fill="#07D1D9" opacity="1.000000" stroke="none" 
	d="
M42.990921,40.991032 
	C46.447945,33.694542 48.176636,33.231064 54.471760,37.910973 
	C55.906528,38.977604 57.343647,40.041077 58.508205,41.481300 
	C56.917763,42.848358 55.000481,43.563610 54.390682,44.883110 
	C52.469139,49.041031 54.707211,53.239410 59.324627,54.956520 
	C64.751480,56.974636 69.704948,55.345299 71.246338,50.747593 
	C73.986366,42.574509 76.537834,34.337643 79.117828,26.111668 
	C80.785973,20.793001 78.448441,16.557119 72.982925,14.819696 
	C67.319153,13.019250 63.193832,15.016595 61.400848,20.480417 
	C60.265202,23.941101 59.201748,27.425472 58.105919,30.899220 
	C56.786060,29.803989 55.466202,28.708755 54.098965,27.269833 
	C55.704811,21.795271 57.495544,16.703421 58.966263,11.520757 
	C60.074760,7.614533 61.959270,6.037593 66.111816,7.535785 
	C71.575981,9.507192 77.056969,11.763185 82.729530,12.728392 
	C87.929588,13.613200 87.366562,15.900622 86.187454,19.540413 
	C83.299782,28.454369 80.610123,37.432999 77.891907,46.401100 
	C76.643967,50.518406 75.516129,54.672119 74.663956,59.000381 
	C72.217468,60.443733 69.440849,61.696030 66.281631,62.956696 
	C60.856495,61.085548 55.907639,58.861031 50.736023,57.457027 
	C47.676178,56.626335 46.692822,55.139111 46.409008,52.213963 
	C46.386219,49.826790 46.392876,47.458107 47.128651,45.343075 
	C48.334805,41.875912 47.124664,40.755356 43.401031,41.004601 
	C42.999935,40.999939 42.990921,40.991032 42.990921,40.991032 
z"/>
<path fill="#01E7EF" opacity="1.000000" stroke="none" 
	d="
M315.832977,44.010662 
	C315.832977,46.145077 315.832977,48.279488 315.832977,50.882912 
	C310.975616,50.882912 306.230408,50.882912 300.914917,50.882912 
	C300.914917,55.752510 301.051331,60.186733 300.795197,64.598167 
	C300.746307,65.439873 299.229889,66.725670 298.247559,66.876709 
	C296.015472,67.219887 293.694519,66.984856 291.020844,66.984856 
	C291.020844,53.320625 291.020844,40.057350 291.558044,26.353924 
	C300.339661,25.908298 308.584076,25.902824 316.828491,25.897348 
	C317.364807,28.052317 317.901123,30.207289 318.597412,33.005142 
	C312.583588,33.005142 307.308655,33.005142 301.201080,33.150360 
	C296.686890,40.371502 298.557465,43.988697 305.906311,44.001160 
	C309.215210,44.006771 312.524078,44.007641 315.832977,44.010662 
z"/>
<path fill="#01E5EF" opacity="1.000000" stroke="none" 
	d="
M389.861572,65.994980 
	C388.577759,66.329659 387.298035,66.933975 386.009430,66.953575 
	C379.514984,67.052353 373.014313,66.866150 366.523895,67.055527 
	C363.370667,67.147522 361.940674,66.207657 361.967194,62.877434 
	C362.063812,50.751614 362.005341,38.624554 362.005341,26.017466 
	C364.869049,26.017466 367.475189,26.017466 370.536682,26.549465 
	C371.002655,37.726830 371.013306,48.372192 371.354370,59.262856 
	C374.814941,59.669746 377.964905,60.129314 381.070740,59.923370 
	C385.778900,59.611176 389.609802,60.075558 389.861572,65.994980 
z"/>
<path fill="#07D1D9" opacity="1.000000" stroke="none" 
	d="
M60.674362,65.235687 
	C60.803707,69.391380 62.689816,70.536476 66.608139,69.348900 
	C71.429459,67.887627 76.326889,66.677467 81.949707,66.367004 
	C81.107277,67.245697 80.410393,68.623825 79.397888,68.918900 
	C74.298325,70.405029 69.167305,71.965408 63.934933,72.711510 
	C62.182213,72.961441 60.097256,70.881447 58.076866,69.525986 
	C58.769192,67.879295 59.548817,66.573059 60.674362,65.235687 
z"/>
<path fill="#11D1DA" opacity="1.000000" stroke="none" 
	d="
M25.564064,27.099628 
	C20.266012,27.407446 19.609394,30.989807 19.894453,35.737759 
	C20.071268,38.682796 19.242008,41.688232 18.516666,44.829948 
	C18.112011,41.399288 18.018250,37.805359 18.005781,34.211155 
	C17.980701,26.981543 17.998983,26.981480 25.564064,27.099628 
z"/>
<path fill="#1CE9F0" opacity="1.000000" stroke="none" 
	d="
M434.576050,26.305725 
	C434.854523,39.206043 434.723694,52.243851 434.381409,65.634636 
	C434.168915,52.806149 434.167816,39.624680 434.576050,26.305725 
z"/>
<path fill="#0EE7EF" opacity="1.000000" stroke="none" 
	d="
M315.704803,43.596870 
	C312.524078,44.007641 309.215210,44.006771 305.906311,44.001160 
	C298.557465,43.988697 296.686890,40.371502 300.740417,33.169800 
	C301.112396,36.180206 301.112396,39.316387 301.112396,43.183079 
	C306.037689,43.183079 310.807159,43.183079 315.704803,43.596870 
z"/>
<path fill="#13E7F0" opacity="1.000000" stroke="none" 
	d="
M371.023956,59.017559 
	C371.013306,48.372192 371.002655,37.726830 370.990112,26.623306 
	C371.325958,27.621864 371.941284,29.075758 371.956116,30.535755 
	C372.049164,39.697147 372.008453,48.859901 371.789124,58.502865 
	C371.385498,58.994869 371.204712,59.006214 371.023956,59.017559 
z"/>
<path fill="#4AECF5" opacity="1.000000" stroke="none" 
	d="
M316.658508,25.509516 
	C308.584076,25.902824 300.339661,25.908298 291.638794,25.881891 
	C296.152435,25.565958 301.119659,25.193905 306.093719,25.028015 
	C309.553772,24.912621 313.023285,25.080404 316.658508,25.509516 
z"/>
<path fill="#24E9F0" opacity="1.000000" stroke="none" 
	d="
M371.354370,59.262856 
	C371.204712,59.006214 371.385498,58.994869 371.837280,58.966095 
	C377.901611,58.948666 383.694916,58.948666 389.986938,58.948666 
	C389.986938,61.239719 389.986938,63.168598 389.924255,65.546227 
	C389.609802,60.075558 385.778900,59.611176 381.070740,59.923370 
	C377.964905,60.129314 374.814941,59.669746 371.354370,59.262856 
z"/>
<path fill="#07D1D9" opacity="1.000000" stroke="none" 
	d="
M93.856033,55.633991 
	C92.265732,55.841888 90.468071,55.704853 88.347778,55.368542 
	C89.899651,55.209198 91.774162,55.249130 93.856033,55.633991 
z"/>
<path fill="#07D1D9" opacity="1.000000" stroke="none" 
	d="
M39.644699,63.269810 
	C40.001232,64.546829 39.997231,65.893173 39.985626,67.646164 
	C39.746742,66.481575 39.515453,64.910355 39.644699,63.269810 
z"/>
<path fill="#07D1D9" opacity="1.000000" stroke="none" 
	d="
M44.852688,62.682014 
	C43.933670,62.986454 42.833927,62.984985 41.321751,62.975159 
	C42.163532,62.769905 43.417747,62.573006 44.852688,62.682014 
z"/>
<path fill="#07D1D9" opacity="1.000000" stroke="none" 
	d="
M45.109840,72.283997 
	C45.512352,72.218132 46.051998,72.424744 46.784981,72.853264 
	C46.401203,72.902267 45.824089,72.729378 45.109840,72.283997 
z"/>
<path fill="#07D1D9" opacity="1.000000" stroke="none" 
	d="
M55.923119,67.683258 
	C55.507866,67.793724 54.961662,67.619247 54.204315,67.245316 
	C54.592842,67.163345 55.192505,67.280823 55.923119,67.683258 
z"/>
<path fill="#07D1D9" opacity="1.000000" stroke="none" 
	d="
M53.783173,66.783005 
	C53.423080,66.802551 52.903179,66.580574 52.202618,66.133667 
	C52.555759,66.119637 53.089565,66.330559 53.783173,66.783005 
z"/>
<path fill="#07D1D9" opacity="1.000000" stroke="none" 
	d="
M49.942810,22.640108 
	C49.525860,22.798149 48.992470,22.663296 48.241482,22.353884 
	C48.624714,22.235287 49.225536,22.291250 49.942810,22.640108 
z"/>
<path fill="#07D1D9" opacity="1.000000" stroke="none" 
	d="
M51.950783,65.656097 
	C51.533611,65.810173 50.998016,65.670090 50.243019,65.355705 
	C50.626530,65.241577 51.229443,65.301758 51.950783,65.656097 
z"/>
<path fill="#07D1D9" opacity="1.000000" stroke="none" 
	d="
M64.681122,63.106987 
	C64.490913,63.420692 63.991421,63.662590 63.210163,63.926674 
	C63.409546,63.644299 63.890697,63.339741 64.681122,63.106987 
z"/>
<path fill="#07D1D9" opacity="1.000000" stroke="none" 
	d="
M47.951424,63.657806 
	C47.534451,63.812954 46.998917,63.673798 46.243675,63.361122 
	C46.626930,63.246235 47.229897,63.304867 47.951424,63.657806 
z"/>
<path fill="#07D1D9" opacity="1.000000" stroke="none" 
	d="
M48.052719,74.335526 
	C48.484264,74.246803 49.032902,74.451134 49.774406,74.882385 
	C49.368122,74.949066 48.768970,74.788811 48.052719,74.335526 
z"/>
<path fill="#07D1D9" opacity="1.000000" stroke="none" 
	d="
M83.689011,55.116615 
	C83.506348,55.427814 83.022179,55.670750 82.262993,55.931278 
	C82.454491,55.648697 82.920998,55.348522 83.689011,55.116615 
z"/>
<path fill="#07D1D9" opacity="1.000000" stroke="none" 
	d="
M45.331898,53.973755 
	C45.239426,53.540752 45.441418,52.982780 45.869530,52.223606 
	C45.939220,52.631199 45.782791,53.239990 45.331898,53.973755 
z"/>
<path fill="#07D1D9" opacity="1.000000" stroke="none" 
	d="
M78.734238,57.150055 
	C78.805023,57.424644 78.579781,57.620594 78.115349,57.869698 
	C78.098610,57.679390 78.285965,57.395580 78.734238,57.150055 
z"/>
<path fill="#07D1D9" opacity="1.000000" stroke="none" 
	d="
M47.013161,73.281647 
	C47.233044,73.182983 47.490639,73.391411 47.837463,73.866615 
	C47.679806,73.896156 47.387863,73.714607 47.013161,73.281647 
z"/>
<path fill="#07D1D9" opacity="1.000000" stroke="none" 
	d="
M53.995831,26.708958 
	C53.773964,26.810299 53.517471,26.603746 53.170479,26.133327 
	C53.329468,26.101612 53.623207,26.278814 53.995831,26.708958 
z"/>
<path fill="#07D1D9" opacity="1.000000" stroke="none" 
	d="
M41.010193,69.269592 
	C41.207317,69.130417 41.455383,69.281837 41.824131,69.640503 
	C41.679066,69.704697 41.384510,69.608841 41.010193,69.269592 
z"/>
<path fill="#07D1D9" opacity="1.000000" stroke="none" 
	d="
M57.010971,68.713913 
	C56.835598,68.763496 56.571171,68.559776 56.164238,68.148376 
	C56.321796,68.114006 56.621857,68.287308 57.010971,68.713913 
z"/>
<path fill="#07D1D9" opacity="1.000000" stroke="none" 
	d="
M52.994789,25.709505 
	C52.773384,25.810616 52.517002,25.604250 52.170181,25.134169 
	C52.328873,25.102587 52.622231,25.279779 52.994789,25.709505 
z"/>
<path fill="#07D1D9" opacity="1.000000" stroke="none" 
	d="
M51.993660,24.710028 
	C51.772556,24.810934 51.516373,24.604698 51.169907,24.134865 
	C51.328384,24.103409 51.621368,24.280613 51.993660,24.710028 
z"/>
<path fill="#07D1D9" opacity="1.000000" stroke="none" 
	d="
M36.009182,52.266041 
	C36.193562,52.128784 36.443436,52.272312 36.817940,52.618515 
	C36.680546,52.682259 36.391247,52.590805 36.009182,52.266041 
z"/>
<path fill="#07D1D9" opacity="1.000000" stroke="none" 
	d="
M62.709404,63.996063 
	C62.752819,64.176956 62.538166,64.437454 62.107304,64.832108 
	C62.077839,64.669395 62.264584,64.372528 62.709404,63.996063 
z"/>
<path fill="#07D1D9" opacity="1.000000" stroke="none" 
	d="
M49.006958,64.715790 
	C48.836060,64.757431 48.571095,64.549072 48.167397,64.126938 
	C48.323406,64.097382 48.618149,64.281586 49.006958,64.715790 
z"/>
<path fill="#07D1D9" opacity="1.000000" stroke="none" 
	d="
M38.985519,53.284439 
	C39.187595,53.140366 39.442982,53.294895 39.823418,53.661514 
	C39.674625,53.728210 39.371414,53.631351 38.985519,53.284439 
z"/>
<path fill="#07D1D9" opacity="1.000000" stroke="none" 
	d="
M50.993271,23.710625 
	C50.772430,23.810780 50.517185,23.604204 50.172062,23.134117 
	C50.329956,23.103294 50.622185,23.281055 50.993271,23.710625 
z"/>
<path fill="#07D1D9" opacity="1.000000" stroke="none" 
	d="
M81.714409,56.012245 
	C81.816322,56.301014 81.585709,56.426662 81.138847,56.272182 
	C81.016762,56.187168 81.476044,56.044239 81.714409,56.012245 
z"/>
<path fill="#07D1D9" opacity="1.000000" stroke="none" 
	d="
M96.027275,56.705925 
	C95.824158,56.859650 95.561211,56.709129 95.169731,56.341717 
	C95.320053,56.269341 95.628799,56.361629 96.027275,56.705925 
z"/>
<path fill="#07D1D9" opacity="1.000000" stroke="none" 
	d="
M76.734390,58.162308 
	C76.806549,58.436298 76.584206,58.630302 76.121361,58.871269 
	C76.104813,58.682709 76.291153,58.404072 76.734390,58.162308 
z"/>
<path fill="#000000" opacity="1.000000" stroke="none" 
	d="
M212.973267,43.103764 
	C213.528641,45.175919 214.055695,46.856842 214.768356,49.129787 
	C212.360168,49.485138 209.923660,49.844669 206.280350,50.382271 
	C207.701355,45.394928 208.844772,41.381824 210.245087,36.467121 
	C211.432419,39.213726 212.188660,40.963131 212.973267,43.103764 
z"/>
<path fill="#000000" opacity="1.000000" stroke="none" 
	d="
M173.323624,41.751060 
	C174.121674,44.185966 174.667603,46.299480 175.306503,48.772919 
	C172.313599,48.772919 169.891418,48.772919 167.330109,48.772919 
	C168.666092,44.656349 169.991974,40.570965 171.508011,35.899624 
	C172.136322,38.121952 172.603912,39.775814 173.323624,41.751060 
z"/>
<path fill="#000000" opacity="1.000000" stroke="none" 
	d="
M256.563354,56.784477 
	C252.372528,57.885490 248.540222,58.814869 244.223572,59.861702 
	C244.223572,50.341549 244.223572,42.067234 244.223572,33.581276 
	C249.914810,34.916302 257.394562,31.505577 260.110992,40.291317 
	C261.999634,46.399769 261.376038,51.833828 256.563354,56.784477 
z"/>
<path fill="#000000" opacity="1.000000" stroke="none" 
	d="
M409.371490,37.391193 
	C411.162811,40.774235 412.663879,44.446835 414.372314,48.626717 
	C411.376251,48.626717 408.883514,48.626717 405.996918,48.626717 
	C407.031647,44.954639 408.056458,41.317696 409.371490,37.391193 
z"/>
<path fill="#000000" opacity="1.000000" stroke="none" 
	d="
M335.756897,44.664257 
	C336.661835,41.709801 337.350067,39.107452 338.202484,35.884331 
	C339.738129,40.517044 341.026245,44.403099 342.572174,49.066898 
	C339.854645,49.456329 337.069580,49.855431 333.749298,50.331238 
	C334.525269,48.028481 335.032745,46.522419 335.756897,44.664257 
z"/>
<path fill="#60EBEE" opacity="1.000000" stroke="none" 
	d="
M58.096291,30.923222 
	C59.201748,27.425472 60.265202,23.941101 61.400848,20.480417 
	C63.193832,15.016595 67.319153,13.019250 72.982925,14.819696 
	C78.448441,16.557119 80.785973,20.793001 79.117828,26.111668 
	C76.537834,34.337643 73.986366,42.574509 71.246338,50.747593 
	C69.704948,55.345299 64.751480,56.974636 59.324627,54.956520 
	C54.707211,53.239410 52.469139,49.041031 54.390682,44.883110 
	C55.000481,43.563610 56.917763,42.848358 58.622959,41.783882 
	C59.448700,41.780079 59.888210,41.848999 60.871723,42.194382 
	C63.278522,41.975960 65.141319,41.481071 67.377045,40.973000 
	C71.861069,38.701012 73.372932,34.599186 71.346130,31.203049 
	C69.303055,27.779612 66.109344,27.724171 61.733307,30.912476 
	C60.981155,31.460476 59.937218,31.607998 59.028069,31.940516 
	C59.028069,31.940516 58.993004,31.984232 58.907738,31.760349 
	C58.630104,31.247271 58.367889,31.051764 58.035824,30.949944 
	C58.035824,30.949944 58.086666,30.947224 58.096291,30.923222 
z"/>
<path fill="#04D3DC" opacity="1.000000" stroke="none" 
	d="
M59.157383,32.202366 
	C59.937218,31.607998 60.981155,31.460476 61.733307,30.912476 
	C66.109344,27.724171 69.303055,27.779612 71.346130,31.203049 
	C73.372932,34.599186 71.861069,38.701012 67.370621,40.597565 
	C65.996788,39.161308 65.002319,38.087311 64.007843,37.013317 
	C64.007843,37.013317 63.998726,37.000656 63.994446,36.653446 
	C64.030251,34.175453 63.518002,32.768955 60.983936,34.013741 
	C60.418190,33.497234 59.852444,32.980724 59.157383,32.202366 
z"/>
<path fill="#07D1D9" opacity="1.000000" stroke="none" 
	d="
M63.989250,37.361008 
	C65.002319,38.087311 65.996788,39.161308 66.997688,40.610744 
	C65.141319,41.481071 63.278522,41.975960 61.202248,42.240448 
	C61.982727,40.576263 62.976688,39.142483 63.989250,37.361008 
z"/>
<path fill="#07D1D9" opacity="1.000000" stroke="none" 
	d="
M61.050461,34.339046 
	C63.518002,32.768955 64.030251,34.175453 63.988464,36.648438 
	C63.030174,36.215210 62.073578,35.439781 61.050461,34.339046 
z"/>
<path fill="#07D1D9" opacity="1.000000" stroke="none" 
	d="
M43.004299,41.004349 
	C42.634605,41.798981 42.260548,42.589211 41.886494,43.379440 
	C41.452496,43.008347 41.018497,42.637253 40.584499,42.266155 
	C41.175442,41.853745 41.766384,41.441334 42.674126,41.009979 
	C42.990921,40.991032 42.999935,40.999939 43.004299,41.004349 
z"/>
<path fill="#07D1D9" opacity="1.000000" stroke="none" 
	d="
M58.166954,31.156279 
	C58.367889,31.051764 58.630104,31.247271 58.935711,31.758743 
	C58.755077,31.827803 58.504791,31.621666 58.166954,31.156279 
z"/>
</svg>